<?xml version="1.0" encoding="UTF-8"?>
<svg id="_Слой_2" data-name="Слой 2" xmlns="http://www.w3.org/2000/svg" xmlns:xlink="http://www.w3.org/1999/xlink" viewBox="0 0 264.72 313.58">
  <defs>
    <style>
      .cls-1 {
        fill: url(#_Безымянный_градиент_2);
      }
    </style>
    <linearGradient id="_Безымянный_градиент_2" data-name="Безымянный градиент 2" x1="138.11" y1="342.63" x2="126.02" y2="-48.17" gradientUnits="userSpaceOnUse">
      <stop offset="0" stop-color="#f8d756"/>
      <stop offset="1" stop-color="#9c6d27"/>
    </linearGradient>
  </defs>
  <g id="_Слой_1-2" data-name="Слой 1">
    <path class="cls-1" d="m264.72,156.79l-5.94-16.19v-63.57l-30.05-18.34-16.32-44.47-.14-.26h-56.82L132.82.14l-.22-.14-22.86,13.95h-57.15l-16.55,44.99-29.4,17.94-.23.14v62.43L.14,156.55l-.14.24,6.42,17.46v62.45l29.61,18.04,16.42,44.63.14.26h57.11l22.68,13.82.22.14,22.9-13.95h56.77l16.34-44.54,29.94-18.24.23-.14v-63.85l5.8-15.82.14-.24Zm-1.48-.91l-1.9-1.4h1.39l.51,1.4Zm-.69-1.9h-1.88l-1.88-1.38v-8.91l3.77,10.29Zm-7.9,0c-.12-.82-.82-1.44-1.67-1.44-.94,0-1.69.76-1.69,1.69s.76,1.69,1.69,1.69c.85,0,1.55-.63,1.67-1.44h3.25v17.83l-30.04,82.1-72.59,44.22h-45.34l-73.08-44.52-13.17-35.9,4.57,3.83c.32,1.21,2.58,8.45,12.33,13.3l.79.39-.1-.88c-.04-.35-1.09-8.74-8.55-12.85l-7.3-4.02-2.41-1.6-11.13-30.34,4.65,4.69c.32,1.22,2.85,9.75,12.43,14.36l.85.41-.17-.92c-.02-.11-2.08-10.93-11.44-14.23l-6.15-5.49-.44.46-4.31-11.74v-8.69l2.08,1.53c.08.59.48,3.86.48,5.54h.09c-.81.09-1.45.77-1.45,1.61,0,.9.73,1.62,1.62,1.62s1.62-.73,1.62-1.62c0-.84-.63-1.52-1.45-1.61h.04c0-1.25-.21-3.29-.36-4.56.87,1.55,2.87,5.25,3.32,7.23l.13-.03c-.66.21-1.14.82-1.14,1.54,0,.9.73,1.62,1.62,1.62s1.62-.73,1.62-1.62-.73-1.62-1.62-1.62c-.08,0-.15.01-.22.02l.07-.02c-.47-2.06-2.48-5.77-3.36-7.35l4.35,3.2.07-.09c-.16.25-.25.54-.25.86,0,.9.73,1.62,1.62,1.62s1.62-.73,1.62-1.62-.73-1.62-1.62-1.62c-.51,0-.95.24-1.25.6l.1-.13-7.74-5.7v-.61h4.13c.12.78.79,1.38,1.6,1.38.9,0,1.62-.73,1.62-1.62s-.73-1.62-1.62-1.62c-.81,0-1.48.6-1.6,1.38h-4.13v-23.2l29.49-80.38L109.98,14.95h45.25l72.69,44.36,14.11,38.56-4.9-4.71c-.31-1.21-2.65-8.8-12.86-13.88l-.83-.41.11.92c.04.37,1.14,9.11,8.92,13.4l7.58,4.17,2.02,1.94.35-.36,11.51,31.47-4.59-4.63c-.33-1.28-2.98-10.16-12.96-14.97l-.88-.43.17.96c.02.11,2.17,11.4,11.93,14.83l6.41,5.72.34-.36,3.56,9.72v10.67l-1.12-.82c-.08-.62-.5-4.02-.5-5.78h-.1c.85-.09,1.52-.8,1.52-1.68,0-.94-.76-1.69-1.69-1.69s-1.69.76-1.69,1.69c0,.87.67,1.59,1.52,1.68h-.04c0,1.3.22,3.43.38,4.76-.91-1.62-3-5.47-3.46-7.54l-.13.03c.68-.22,1.18-.85,1.18-1.61,0-.94-.76-1.69-1.69-1.69s-1.69.76-1.69,1.69.76,1.69,1.69,1.69c.08,0,.15-.01.23-.02l-.08.02c.49,2.15,2.58,6.02,3.51,7.66l-4.53-3.34-.07.1c.16-.26.26-.57.26-.9,0-.94-.76-1.69-1.69-1.69s-1.69.76-1.69,1.69.76,1.69,1.69,1.69c.53,0,1-.25,1.32-.64l-.11.15,7.02,5.16v1.41h-3.25ZM29.16,221.72s-.01-.05-.01-.06l-.04-.16-.51-.43c-.15-.17-.29-.33-.42-.48l4.07,2.24c5.34,2.94,7.22,8.38,7.81,10.84-3.31-3.33-8.17-8.83-10.9-11.96Zm9.23,11.28c-5.09-3.23-7.48-7.09-8.52-9.37,2.45,2.78,5.8,6.54,8.52,9.37Zm-22.74-11.66c.1-.49.31-.87.58-1.36.35-.63.76-1.39,1.14-2.63-.16,3.96-.63,11.27-2,16.58-.33-2.61-.73-7.65.28-12.58Zm2.42-3.45c.81,2.89,1.98,9.57-1.88,15.72,1.24-5.1,1.7-11.77,1.88-15.72Zm.19-26.49c6.82,2.62,9.41,9.55,10.17,12.25-3.08-3.01-8.03-9.42-10.17-12.25Zm8.82,11.55c-5.85-3.68-8.35-8.92-9.24-11.31,1.91,2.52,6.11,7.99,9.24,11.31Zm209.09-109.48s.01.06.02.06l.03.15.8.77c.06.07.11.13.17.19l-4.24-2.33c-5.57-3.07-7.52-8.73-8.14-11.3,3.45,3.47,8.52,9.2,11.37,12.47Zm-9.63-11.76c5.3,3.37,7.8,7.39,8.88,9.77-2.55-2.9-6.05-6.82-8.88-9.77Zm23.7,12.15c-.11.51-.33.91-.61,1.42-.36.66-.79,1.45-1.19,2.74.17-4.13.66-11.74,2.09-17.28.35,2.73.76,7.98-.29,13.12Zm-2.52,3.6c-.85-3.02-2.1-10,1.97-16.44-1.3,5.32-1.79,12.31-1.97,16.44Zm-.19,27.61c-7.11-2.73-9.81-9.96-10.6-12.76,3.21,3.14,8.37,9.82,10.6,12.76Zm-9.19-12.04c6.09,3.83,8.7,9.3,9.63,11.78-1.99-2.63-6.37-8.33-9.63-11.78Zm20.44,40.17l1.04.76h-1.04v-.76Zm-.88-75.6v60.58l-9.71-26.47h.08v-3.01c.13-9.08,1.43-11.46,2.25-12.94.31-.56.57-1.04.71-1.7,1.55-7.56.06-15.11,0-15.42l-.21-1.02-.67.8c-7.4,8.89-3.52,19.72-3.08,20.87v9.34c0,.18,0,.38,0,.57l-18-49.07,28.63,17.47Zm-46.21-62.66l15.7,42.91L157.09,14.95h54.59ZM132.6,1.15l20.99,12.81h-41.97l20.99-12.81ZM53.18,14.95h54.92L37.33,58.15l15.85-43.2ZM7.31,77.61l28.2-17.21L7.31,137.06v-59.44Zm-.88,64.79v20.8h-.6l-3.18-2.34-1.49-4.07,5.28-14.38Zm-3.48,19.27l2.07,1.52h-1.51l-.56-1.52Zm.74,2.01h1.99l.75.55v6.93l-2.75-7.48Zm3.63,72.42v-59.46l10.25,27.85v2.6c-.12,8.71-1.38,10.99-2.16,12.41-.29.54-.55,1-.68,1.63-1.49,7.25-.06,14.49,0,14.8l.2.98.64-.77c7.1-8.53,3.38-18.92,2.96-20.02v-8.96s0-.04,0-.06l16.99,46.17-28.19-17.17Zm45.88,62.51l-15.8-43.06,70.68,43.06h-54.88Zm79.42,13.81l-21.03-12.81h42.05l-21.03,12.81Zm79.08-13.81h-54.54l70.18-42.76-15.64,42.76Zm46.21-62.51l-28.75,17.51,28.75-78.36v60.85Zm.88-66.22v-15.41h1.72l3.05,2.25.02.06-4.79,13.1Z"/>
  </g>
</svg>